<mxfile host="app.diagrams.net" modified="2020-11-03T10:18:54.421Z" agent="5.0 (Windows)" etag="oKyRvJPPsBpwNRjMbPnR" version="13.8.8" type="github">
  <diagram id="C5RBs43oDa-KdzZeNtuy" name="Page-1">
    <mxGraphModel dx="1422" dy="763" grid="1" gridSize="10" guides="1" tooltips="1" connect="1" arrows="1" fold="1" page="1" pageScale="1" pageWidth="827" pageHeight="1169" math="0" shadow="0">
      <root>
        <mxCell id="WIyWlLk6GJQsqaUBKTNV-0" />
        <mxCell id="WIyWlLk6GJQsqaUBKTNV-1" parent="WIyWlLk6GJQsqaUBKTNV-0" />
        <mxCell id="9-ojFHlfxs9_xBeONFOD-5" value="" style="edgeStyle=orthogonalEdgeStyle;rounded=0;orthogonalLoop=1;jettySize=auto;html=1;" parent="WIyWlLk6GJQsqaUBKTNV-1" source="9-ojFHlfxs9_xBeONFOD-0" target="9-ojFHlfxs9_xBeONFOD-4" edge="1">
          <mxGeometry relative="1" as="geometry" />
        </mxCell>
        <mxCell id="9-ojFHlfxs9_xBeONFOD-0" value="&lt;font style=&quot;font-size: 15px&quot;&gt;Mula&lt;/font&gt;" style="ellipse;whiteSpace=wrap;html=1;" parent="WIyWlLk6GJQsqaUBKTNV-1" vertex="1">
          <mxGeometry x="330" y="40" width="80" height="40" as="geometry" />
        </mxCell>
        <mxCell id="9-ojFHlfxs9_xBeONFOD-39" style="edgeStyle=orthogonalEdgeStyle;rounded=0;orthogonalLoop=1;jettySize=auto;html=1;exitX=0.5;exitY=1;exitDx=0;exitDy=0;entryX=0.5;entryY=0;entryDx=0;entryDy=0;" parent="WIyWlLk6GJQsqaUBKTNV-1" source="9-ojFHlfxs9_xBeONFOD-4" target="9-ojFHlfxs9_xBeONFOD-35" edge="1">
          <mxGeometry relative="1" as="geometry" />
        </mxCell>
        <mxCell id="9-ojFHlfxs9_xBeONFOD-4" value="Isytihar pemboleh ubah kekerapan = 0" style="whiteSpace=wrap;html=1;" parent="WIyWlLk6GJQsqaUBKTNV-1" vertex="1">
          <mxGeometry x="310" y="110" width="120" height="60" as="geometry" />
        </mxCell>
        <mxCell id="9-ojFHlfxs9_xBeONFOD-54" style="edgeStyle=orthogonalEdgeStyle;rounded=0;orthogonalLoop=1;jettySize=auto;html=1;exitX=0.5;exitY=1;exitDx=0;exitDy=0;entryX=0.5;entryY=0;entryDx=0;entryDy=0;" parent="WIyWlLk6GJQsqaUBKTNV-1" source="9-ojFHlfxs9_xBeONFOD-8" target="9-ojFHlfxs9_xBeONFOD-13" edge="1">
          <mxGeometry relative="1" as="geometry" />
        </mxCell>
        <mxCell id="9-ojFHlfxs9_xBeONFOD-8" value="Paparkan mesej&quot;Masukkan kekerapan anda ponteng sekolah pada tahun ini." style="shape=parallelogram;perimeter=parallelogramPerimeter;whiteSpace=wrap;html=1;fixedSize=1;" parent="WIyWlLk6GJQsqaUBKTNV-1" vertex="1">
          <mxGeometry x="270" y="350" width="200" height="60" as="geometry" />
        </mxCell>
        <mxCell id="9-ojFHlfxs9_xBeONFOD-17" value="" style="edgeStyle=orthogonalEdgeStyle;rounded=0;orthogonalLoop=1;jettySize=auto;html=1;" parent="WIyWlLk6GJQsqaUBKTNV-1" source="9-ojFHlfxs9_xBeONFOD-13" target="9-ojFHlfxs9_xBeONFOD-16" edge="1">
          <mxGeometry relative="1" as="geometry" />
        </mxCell>
        <mxCell id="9-ojFHlfxs9_xBeONFOD-13" value="Setkan nilai kekerapan = nombor yang dimasukkan" style="whiteSpace=wrap;html=1;" parent="WIyWlLk6GJQsqaUBKTNV-1" vertex="1">
          <mxGeometry x="195" y="450" width="350" height="40" as="geometry" />
        </mxCell>
        <mxCell id="9-ojFHlfxs9_xBeONFOD-15" style="edgeStyle=orthogonalEdgeStyle;rounded=0;orthogonalLoop=1;jettySize=auto;html=1;exitX=0.5;exitY=1;exitDx=0;exitDy=0;" parent="WIyWlLk6GJQsqaUBKTNV-1" source="9-ojFHlfxs9_xBeONFOD-13" target="9-ojFHlfxs9_xBeONFOD-13" edge="1">
          <mxGeometry relative="1" as="geometry" />
        </mxCell>
        <mxCell id="9-ojFHlfxs9_xBeONFOD-21" value="" style="edgeStyle=orthogonalEdgeStyle;rounded=0;orthogonalLoop=1;jettySize=auto;html=1;" parent="WIyWlLk6GJQsqaUBKTNV-1" source="9-ojFHlfxs9_xBeONFOD-16" target="9-ojFHlfxs9_xBeONFOD-20" edge="1">
          <mxGeometry relative="1" as="geometry" />
        </mxCell>
        <mxCell id="9-ojFHlfxs9_xBeONFOD-56" style="edgeStyle=orthogonalEdgeStyle;rounded=0;orthogonalLoop=1;jettySize=auto;html=1;exitX=1;exitY=0.5;exitDx=0;exitDy=0;entryX=0;entryY=0.5;entryDx=0;entryDy=0;" parent="WIyWlLk6GJQsqaUBKTNV-1" source="9-ojFHlfxs9_xBeONFOD-16" target="9-ojFHlfxs9_xBeONFOD-55" edge="1">
          <mxGeometry relative="1" as="geometry" />
        </mxCell>
        <mxCell id="9-ojFHlfxs9_xBeONFOD-16" value="Kekerapan &amp;lt;= 1" style="rhombus;whiteSpace=wrap;html=1;" parent="WIyWlLk6GJQsqaUBKTNV-1" vertex="1">
          <mxGeometry x="310" y="530" width="120" height="80" as="geometry" />
        </mxCell>
        <mxCell id="9-ojFHlfxs9_xBeONFOD-41" style="edgeStyle=orthogonalEdgeStyle;rounded=0;orthogonalLoop=1;jettySize=auto;html=1;exitX=0.5;exitY=1;exitDx=0;exitDy=0;entryX=0.5;entryY=0;entryDx=0;entryDy=0;" parent="WIyWlLk6GJQsqaUBKTNV-1" source="9-ojFHlfxs9_xBeONFOD-20" target="9-ojFHlfxs9_xBeONFOD-24" edge="1">
          <mxGeometry relative="1" as="geometry" />
        </mxCell>
        <mxCell id="9-ojFHlfxs9_xBeONFOD-58" style="edgeStyle=orthogonalEdgeStyle;rounded=0;orthogonalLoop=1;jettySize=auto;html=1;exitX=1;exitY=0.5;exitDx=0;exitDy=0;entryX=0;entryY=0.5;entryDx=0;entryDy=0;" parent="WIyWlLk6GJQsqaUBKTNV-1" source="9-ojFHlfxs9_xBeONFOD-20" target="9-ojFHlfxs9_xBeONFOD-57" edge="1">
          <mxGeometry relative="1" as="geometry" />
        </mxCell>
        <mxCell id="9-ojFHlfxs9_xBeONFOD-20" value="Kekerapan &amp;lt;= 3" style="rhombus;whiteSpace=wrap;html=1;" parent="WIyWlLk6GJQsqaUBKTNV-1" vertex="1">
          <mxGeometry x="310" y="650" width="120" height="80" as="geometry" />
        </mxCell>
        <mxCell id="9-ojFHlfxs9_xBeONFOD-52" style="edgeStyle=orthogonalEdgeStyle;rounded=0;orthogonalLoop=1;jettySize=auto;html=1;exitX=0.5;exitY=1;exitDx=0;exitDy=0;entryX=0.5;entryY=0;entryDx=0;entryDy=0;" parent="WIyWlLk6GJQsqaUBKTNV-1" source="9-ojFHlfxs9_xBeONFOD-24" target="9-ojFHlfxs9_xBeONFOD-51" edge="1">
          <mxGeometry relative="1" as="geometry" />
        </mxCell>
        <mxCell id="9-ojFHlfxs9_xBeONFOD-60" style="edgeStyle=orthogonalEdgeStyle;rounded=0;orthogonalLoop=1;jettySize=auto;html=1;exitX=1;exitY=0.5;exitDx=0;exitDy=0;entryX=0;entryY=0.5;entryDx=0;entryDy=0;" parent="WIyWlLk6GJQsqaUBKTNV-1" source="9-ojFHlfxs9_xBeONFOD-24" target="9-ojFHlfxs9_xBeONFOD-59" edge="1">
          <mxGeometry relative="1" as="geometry" />
        </mxCell>
        <mxCell id="9-ojFHlfxs9_xBeONFOD-24" value="Kekerapan &amp;lt;= 5" style="rhombus;whiteSpace=wrap;html=1;" parent="WIyWlLk6GJQsqaUBKTNV-1" vertex="1">
          <mxGeometry x="310" y="770" width="120" height="80" as="geometry" />
        </mxCell>
        <mxCell id="9-ojFHlfxs9_xBeONFOD-37" style="edgeStyle=orthogonalEdgeStyle;rounded=0;orthogonalLoop=1;jettySize=auto;html=1;exitX=0.5;exitY=1;exitDx=0;exitDy=0;entryX=0.5;entryY=0;entryDx=0;entryDy=0;" parent="WIyWlLk6GJQsqaUBKTNV-1" source="9-ojFHlfxs9_xBeONFOD-35" target="9-ojFHlfxs9_xBeONFOD-8" edge="1">
          <mxGeometry relative="1" as="geometry" />
        </mxCell>
        <mxCell id="9-ojFHlfxs9_xBeONFOD-49" style="edgeStyle=orthogonalEdgeStyle;rounded=0;orthogonalLoop=1;jettySize=auto;html=1;exitX=0;exitY=0.5;exitDx=0;exitDy=0;entryX=0.5;entryY=0;entryDx=0;entryDy=0;" parent="WIyWlLk6GJQsqaUBKTNV-1" source="9-ojFHlfxs9_xBeONFOD-35" target="9-ojFHlfxs9_xBeONFOD-48" edge="1">
          <mxGeometry relative="1" as="geometry" />
        </mxCell>
        <mxCell id="9-ojFHlfxs9_xBeONFOD-35" value="Paparkan mesej &quot;Adakah anda pernah ponteng [Ya/Tidak]" style="rhombus;whiteSpace=wrap;html=1;" parent="WIyWlLk6GJQsqaUBKTNV-1" vertex="1">
          <mxGeometry x="285.5" y="210" width="169" height="100" as="geometry" />
        </mxCell>
        <mxCell id="9-ojFHlfxs9_xBeONFOD-70" style="edgeStyle=orthogonalEdgeStyle;rounded=0;orthogonalLoop=1;jettySize=auto;html=1;exitX=0.5;exitY=1;exitDx=0;exitDy=0;" parent="WIyWlLk6GJQsqaUBKTNV-1" source="9-ojFHlfxs9_xBeONFOD-45" target="9-ojFHlfxs9_xBeONFOD-69" edge="1">
          <mxGeometry relative="1" as="geometry" />
        </mxCell>
        <mxCell id="9-ojFHlfxs9_xBeONFOD-45" value="Paparkan mesej&quot; Terima kasih atas kerjasama anda" style="shape=parallelogram;perimeter=parallelogramPerimeter;whiteSpace=wrap;html=1;fixedSize=1;" parent="WIyWlLk6GJQsqaUBKTNV-1" vertex="1">
          <mxGeometry x="247.5" y="990" width="245" height="60" as="geometry" />
        </mxCell>
        <mxCell id="9-ojFHlfxs9_xBeONFOD-50" style="edgeStyle=orthogonalEdgeStyle;rounded=0;orthogonalLoop=1;jettySize=auto;html=1;exitX=0.5;exitY=1;exitDx=0;exitDy=0;entryX=0;entryY=0.5;entryDx=0;entryDy=0;" parent="WIyWlLk6GJQsqaUBKTNV-1" source="9-ojFHlfxs9_xBeONFOD-48" target="9-ojFHlfxs9_xBeONFOD-45" edge="1">
          <mxGeometry relative="1" as="geometry">
            <Array as="points">
              <mxPoint x="80" y="1020" />
            </Array>
          </mxGeometry>
        </mxCell>
        <mxCell id="9-ojFHlfxs9_xBeONFOD-48" value="Paparkan mesej&quot; Anda pelajar yang berdisiplin" style="shape=parallelogram;perimeter=parallelogramPerimeter;whiteSpace=wrap;html=1;fixedSize=1;" parent="WIyWlLk6GJQsqaUBKTNV-1" vertex="1">
          <mxGeometry x="20" y="580" width="120" height="60" as="geometry" />
        </mxCell>
        <mxCell id="9-ojFHlfxs9_xBeONFOD-53" style="edgeStyle=orthogonalEdgeStyle;rounded=0;orthogonalLoop=1;jettySize=auto;html=1;exitX=0.5;exitY=1;exitDx=0;exitDy=0;entryX=0.5;entryY=0;entryDx=0;entryDy=0;" parent="WIyWlLk6GJQsqaUBKTNV-1" source="9-ojFHlfxs9_xBeONFOD-51" target="9-ojFHlfxs9_xBeONFOD-45" edge="1">
          <mxGeometry relative="1" as="geometry" />
        </mxCell>
        <mxCell id="9-ojFHlfxs9_xBeONFOD-51" value="&lt;span&gt;Paparkan mesej&quot; Anda akan dikena hukuman dengan dibuang sekolah&lt;/span&gt;" style="shape=parallelogram;perimeter=parallelogramPerimeter;whiteSpace=wrap;html=1;fixedSize=1;" parent="WIyWlLk6GJQsqaUBKTNV-1" vertex="1">
          <mxGeometry x="260" y="890" width="220" height="60" as="geometry" />
        </mxCell>
        <mxCell id="9-ojFHlfxs9_xBeONFOD-66" style="edgeStyle=orthogonalEdgeStyle;rounded=0;orthogonalLoop=1;jettySize=auto;html=1;exitX=1;exitY=0.5;exitDx=0;exitDy=0;entryX=1;entryY=0.5;entryDx=0;entryDy=0;" parent="WIyWlLk6GJQsqaUBKTNV-1" source="9-ojFHlfxs9_xBeONFOD-55" target="9-ojFHlfxs9_xBeONFOD-45" edge="1">
          <mxGeometry relative="1" as="geometry">
            <Array as="points">
              <mxPoint x="780" y="570" />
              <mxPoint x="780" y="1020" />
            </Array>
          </mxGeometry>
        </mxCell>
        <mxCell id="9-ojFHlfxs9_xBeONFOD-55" value="&lt;div&gt;&lt;span&gt;Paparkan mesej&quot; Anda akan &lt;br&gt;&lt;/span&gt;&lt;/div&gt;&lt;div&gt;&lt;span&gt;dikena hukuman dengan dirotan sebanyak sekali&lt;/span&gt;&lt;/div&gt;" style="shape=parallelogram;perimeter=parallelogramPerimeter;whiteSpace=wrap;html=1;fixedSize=1;" parent="WIyWlLk6GJQsqaUBKTNV-1" vertex="1">
          <mxGeometry x="510" y="540" width="210" height="60" as="geometry" />
        </mxCell>
        <mxCell id="9-ojFHlfxs9_xBeONFOD-67" style="edgeStyle=orthogonalEdgeStyle;rounded=0;orthogonalLoop=1;jettySize=auto;html=1;exitX=1;exitY=0.5;exitDx=0;exitDy=0;entryX=1;entryY=0.5;entryDx=0;entryDy=0;" parent="WIyWlLk6GJQsqaUBKTNV-1" source="9-ojFHlfxs9_xBeONFOD-57" target="9-ojFHlfxs9_xBeONFOD-45" edge="1">
          <mxGeometry relative="1" as="geometry">
            <Array as="points">
              <mxPoint x="780" y="690" />
              <mxPoint x="780" y="1020" />
            </Array>
          </mxGeometry>
        </mxCell>
        <mxCell id="9-ojFHlfxs9_xBeONFOD-57" value="&lt;span&gt;Paparkan mesej&quot; Anda akan dikena hukuman dengan sebanyak dua kali&lt;/span&gt;" style="shape=parallelogram;perimeter=parallelogramPerimeter;whiteSpace=wrap;html=1;fixedSize=1;" parent="WIyWlLk6GJQsqaUBKTNV-1" vertex="1">
          <mxGeometry x="500" y="660" width="230" height="60" as="geometry" />
        </mxCell>
        <mxCell id="9-ojFHlfxs9_xBeONFOD-68" style="edgeStyle=orthogonalEdgeStyle;rounded=0;orthogonalLoop=1;jettySize=auto;html=1;exitX=1;exitY=0.5;exitDx=0;exitDy=0;entryX=1;entryY=0.5;entryDx=0;entryDy=0;" parent="WIyWlLk6GJQsqaUBKTNV-1" source="9-ojFHlfxs9_xBeONFOD-59" target="9-ojFHlfxs9_xBeONFOD-45" edge="1">
          <mxGeometry relative="1" as="geometry">
            <Array as="points">
              <mxPoint x="780" y="810" />
              <mxPoint x="780" y="1020" />
            </Array>
          </mxGeometry>
        </mxCell>
        <mxCell id="9-ojFHlfxs9_xBeONFOD-59" value="&lt;span&gt;Paparkan mesej&quot; Anda akan dikena hukuman dengan digantung sekolah selama seminggu&lt;/span&gt;" style="shape=parallelogram;perimeter=parallelogramPerimeter;whiteSpace=wrap;html=1;fixedSize=1;" parent="WIyWlLk6GJQsqaUBKTNV-1" vertex="1">
          <mxGeometry x="500" y="780" width="220" height="60" as="geometry" />
        </mxCell>
        <mxCell id="9-ojFHlfxs9_xBeONFOD-69" value="Tamat" style="ellipse;whiteSpace=wrap;html=1;" parent="WIyWlLk6GJQsqaUBKTNV-1" vertex="1">
          <mxGeometry x="310" y="1080" width="120" height="50" as="geometry" />
        </mxCell>
        <mxCell id="qgnOQnmtVB_LNoMWFFD5-0" value="Tidak" style="text;html=1;strokeColor=none;fillColor=none;align=center;verticalAlign=middle;whiteSpace=wrap;rounded=0;" parent="WIyWlLk6GJQsqaUBKTNV-1" vertex="1">
          <mxGeometry x="380" y="610" width="40" height="20" as="geometry" />
        </mxCell>
        <mxCell id="qgnOQnmtVB_LNoMWFFD5-2" value="Tidak" style="text;html=1;strokeColor=none;fillColor=none;align=center;verticalAlign=middle;whiteSpace=wrap;rounded=0;" parent="WIyWlLk6GJQsqaUBKTNV-1" vertex="1">
          <mxGeometry x="380" y="730" width="40" height="20" as="geometry" />
        </mxCell>
        <mxCell id="qgnOQnmtVB_LNoMWFFD5-3" value="Tidak" style="text;html=1;strokeColor=none;fillColor=none;align=center;verticalAlign=middle;whiteSpace=wrap;rounded=0;" parent="WIyWlLk6GJQsqaUBKTNV-1" vertex="1">
          <mxGeometry x="380" y="840" width="40" height="20" as="geometry" />
        </mxCell>
        <mxCell id="qgnOQnmtVB_LNoMWFFD5-4" value="Tidak" style="text;html=1;strokeColor=none;fillColor=none;align=center;verticalAlign=middle;whiteSpace=wrap;rounded=0;" parent="WIyWlLk6GJQsqaUBKTNV-1" vertex="1">
          <mxGeometry x="245.5" y="270" width="40" height="20" as="geometry" />
        </mxCell>
      </root>
    </mxGraphModel>
  </diagram>
</mxfile>
